<?xml version="1.0" encoding="utf-8"?>
<svg width="15px" height="15px" viewBox="0 0 15 15" version="1.1" xmlns:xlink="http://www.w3.org/1999/xlink" xmlns="http://www.w3.org/2000/svg">
  <desc>Created with Lunacy</desc>
  <g id="icons8_restart">
    <g id="Group">
      <path d="M5.81114 0L0 1.16223L1.7615 2.92373C0.740012 4.19719 0.108959 5.79525 0.108959 7.55448C0.108959 11.6654 3.44128 15 7.55448 15C11.6677 15 15 11.6654 15 7.55448C15 4.47185 13.1295 1.82052 10.46 0.690073L10.46 2.48789C12.2193 3.49803 13.4019 5.38211 13.4019 7.55448C13.4019 10.7869 10.7869 13.4019 7.55448 13.4019C4.32203 13.4019 1.70702 10.7869 1.70702 7.55448C1.70702 6.23335 2.1474 5.028 2.88741 4.04964L4.64891 5.81114L5.81114 0Z" id="Shape" fill="#5B5B5B" stroke="none" />
    </g>
  </g>
</svg>